# xmcd CD database file
# Copyright (C) 1993-1996 Ti Kan
#
# Track frame offsets:
#  150
#  17098
#  35780
#  49763
#  68813
#  87378
#  106260
#  121965
#  136263
#
# Disc length: 2068 seconds
#
# Revision: 3
# Processed by: cddbd v1.5.1PL0 Copyright (c) Steve Scherf et al.
# Submitted via: Advanced CD Ripper Pro 2.0
#
DISCID=77081209
DTITLE=K.T. Oslin - 80's Ladies
DYEAR=2003
DGENRE=Country
TTITLE0=Wall Of Tears
TTITLE1=I'll Always Come Back
TTITLE2=Younger Men
TTITLE3=80's Ladies
TTITLE4=Do Ya'
TTITLE5=Two Hearts
TTITLE6=Dr., Dr.
TTITLE7=Lonely But Only For You
TTITLE8=Old Pictures
EXTD=
EXTT0=
EXTT1=
EXTT2=
EXTT3=
EXTT4=
EXTT5=
EXTT6=
EXTT7=
EXTT8=
PLAYORDER=
